<svg xmlns="http://www.w3.org/2000/svg" fill="none" class="web3icons" viewBox="0 0 24 24" width="64" height="64"><g clip-path="url(#a)"><path fill="#000" d="M24 0H0v24h24z"/><path fill="url(#b)" d="M4 5.474v1.692l1.638 1.621 3.57.969v.758l1.436 3.553v1.175l1.343 1.486v.03l.013-.013.013.013v-.03l1.343-1.486v-1.179l1.431-3.554v-.757l3.58-.969L20 7.166V5.474l-.434 1.174-1.204.725-3.57.619-2.78-.615v-.004h-.025v.004l-2.779.615-3.57-.62-1.204-.724z"/><path fill="url(#c)" d="m7.79 14.712.866-3.9 1.365 3.31-.316 1.347 1.874 1.937v1.12z"/><path fill="url(#d)" d="m16.21 14.712-.867-3.9-1.364 3.31.316 1.347-1.874 1.937v1.12z"/></g><defs><linearGradient id="b" x1="4.8" x2="19.669" y1="7.831" y2="7.551" gradientUnits="userSpaceOnUse"><stop stop-color="#380d78"/><stop offset=".43" stop-color="#56758a"/><stop offset=".75" stop-color="#7bf29e"/><stop offset=".93" stop-color="#8fd5b8"/><stop offset="1" stop-color="#a7acc2"/></linearGradient><linearGradient id="c" x1="4" x2="9.717" y1="9.934" y2="20.916" gradientUnits="userSpaceOnUse"><stop stop-color="#24153e"/><stop offset="1" stop-color="#77e397"/></linearGradient><linearGradient id="d" x1="14.316" x2="14.316" y1="10.812" y2="18.526" gradientUnits="userSpaceOnUse"><stop stop-color="#a69bd7"/><stop offset=".3" stop-color="#84e7ae"/><stop offset=".48" stop-color="#70d78f"/><stop offset="1" stop-color="#3d5f5e"/></linearGradient><clipPath id="a"><path fill="#fff" d="M0 0h24v24H0z"/></clipPath></defs></svg>